<svg width="103" height="103" viewBox="0 0 103 103" fill="none" xmlns="http://www.w3.org/2000/svg">
<path d="M51.7801 9.60006C28.3841 9.28406 9.28406 28.3841 9.60006 51.7801C9.91206 74.2181 28.1821 92.4881 50.6201 92.8001C74.0201 93.1201 93.1161 74.0201 92.7961 50.6241C92.4881 28.1821 74.2181 9.91206 51.7801 9.60006ZM77.0641 75.0501C76.9844 75.1362 76.8867 75.2038 76.778 75.248C76.6693 75.2922 76.5522 75.3119 76.4351 75.3058C76.3179 75.2997 76.2035 75.2679 76.0999 75.2126C75.9964 75.1574 75.9063 75.08 75.8361 74.9861C74.0472 72.6455 71.8564 70.6417 69.3661 69.0681C64.2741 65.8001 57.8221 64.0001 51.2001 64.0001C44.5781 64.0001 38.1261 65.8001 33.0341 69.0681C30.5438 70.641 28.353 72.6442 26.5641 74.9841C26.4938 75.078 26.4037 75.1554 26.3002 75.2106C26.1966 75.2659 26.0822 75.2977 25.9651 75.3038C25.8479 75.3099 25.7308 75.2902 25.6221 75.246C25.5134 75.2018 25.4157 75.1342 25.3361 75.0481C19.4674 68.7128 16.143 60.4347 16.0001 51.8001C15.6741 32.3381 31.6441 16.0481 51.1141 16.0001C70.5841 15.9521 86.4001 31.7621 86.4001 51.2001C86.4068 60.0429 83.0721 68.5617 77.0641 75.0501Z" fill="black"/>
<path d="M51.2 28.7998C47.256 28.7998 43.69 30.2778 41.156 32.9638C38.622 35.6498 37.356 39.3638 37.642 43.3498C38.222 51.1998 44.304 57.5998 51.2 57.5998C58.096 57.5998 64.166 51.1998 64.758 43.3518C65.054 39.4038 63.798 35.7238 61.222 32.9878C58.678 30.2878 55.118 28.7998 51.2 28.7998Z" fill="black"/>
</svg>
