<svg width="103" height="103" viewBox="0 0 103 103" fill="none" xmlns="http://www.w3.org/2000/svg">
<path d="M64 76.8001V80.0001C64 83.3949 62.6514 86.6506 60.251 89.0511C57.8505 91.4515 54.5948 92.8001 51.2 92.8001C47.8052 92.8001 44.5495 91.4515 42.149 89.0511C39.7486 86.6506 38.4 83.3949 38.4 80.0001V76.8001M85.536 70.2861C80.4 64.0001 76.774 60.8001 76.774 43.4701C76.774 27.6001 68.67 21.9461 62 19.2001C61.114 18.8361 60.28 18.0001 60.01 17.0901C58.84 13.1081 55.56 9.6001 51.2 9.6001C46.84 9.6001 43.558 13.1101 42.4 17.0941C42.13 18.0141 41.296 18.8361 40.41 19.2001C33.732 21.9501 25.636 27.5841 25.636 43.4701C25.626 60.8001 22 64.0001 16.864 70.2861C14.736 72.8901 16.6 76.8001 20.322 76.8001H82.098C85.8 76.8001 87.652 72.8781 85.536 70.2861Z" stroke="black" stroke-width="6.4" stroke-linecap="round" stroke-linejoin="round"/>
</svg>
