<svg width="103" height="103" viewBox="0 0 103 103" fill="none" xmlns="http://www.w3.org/2000/svg">
<path d="M16 42.3999V89.5999C16 90.4486 16.3371 91.2625 16.9373 91.8626C17.5374 92.4628 18.3513 92.7999 19.2 92.7999H38.4V65.5999C38.4 64.3269 38.9057 63.106 39.8059 62.2058C40.7061 61.3056 41.927 60.7999 43.2 60.7999H59.2C60.473 60.7999 61.6939 61.3056 62.5941 62.2058C63.4943 63.106 64 64.3269 64 65.5999V92.7999H83.2C84.0487 92.7999 84.8626 92.4628 85.4627 91.8626C86.0629 91.2625 86.4 90.4486 86.4 89.5999V42.3999" stroke="black" stroke-width="6.4" stroke-linecap="round" stroke-linejoin="round"/>
<path d="M95.9999 51.2L53.3779 10.4C52.3779 9.34402 50.0399 9.33202 49.0219 10.4L6.3999 51.2M79.9999 35.8V12.8H70.3999V26.6" stroke="black" stroke-width="6.4" stroke-linecap="round" stroke-linejoin="round"/>
</svg>
